<?xml version="1.0" encoding="UTF-8" standalone="no"?>
<!DOCTYPE svg PUBLIC "-//W3C//DTD SVG 1.1//EN"
 "http://www.w3.org/Graphics/SVG/1.1/DTD/svg11.dtd">
<!-- Generated by graphviz version 2.40.1 (20161225.0304)
 -->
<!-- Title: %3 Pages: 1 -->
<svg width="235pt" height="300pt"
 viewBox="0.00 0.00 235.07 300.00" xmlns="http://www.w3.org/2000/svg" xmlns:xlink="http://www.w3.org/1999/xlink">
<g id="graph0" class="graph" transform="scale(1 1) rotate(0) translate(4 296)">
<title>%3</title>
<polygon fill="#ffffff" stroke="transparent" points="-4,4 -4,-296 231.0686,-296 231.0686,4 -4,4"/>
<text text-anchor="middle" x="113.5343" y="-7.8" font-family="Times,serif" font-size="14.00" fill="#000000">How to make sure &#39;input&#39; is valid</text>
<!--   -->
<g id="node1" class="node">
<title> </title>
<ellipse fill="none" stroke="#000000" cx="27" cy="-274" rx="27" ry="18"/>
<text text-anchor="middle" x="27" y="-270.3" font-family="Times,serif" font-size="14.00" fill="#000000"> </text>
</g>
<!-- start -->
<g id="node2" class="node">
<title>start</title>
<path fill="none" stroke="#000000" d="M114,-292C114,-292 84,-292 84,-292 78,-292 72,-286 72,-280 72,-280 72,-268 72,-268 72,-262 78,-256 84,-256 84,-256 114,-256 114,-256 120,-256 126,-262 126,-268 126,-268 126,-280 126,-280 126,-286 120,-292 114,-292"/>
<text text-anchor="middle" x="99" y="-270.3" font-family="Times,serif" font-size="14.00" fill="#000000">start</text>
</g>
<!-- input -->
<g id="node6" class="node">
<title>input</title>
<polygon fill="none" stroke="#000000" points="143.5773,-219 72.6648,-219 54.4227,-183 125.3352,-183 143.5773,-219"/>
<text text-anchor="middle" x="99" y="-197.3" font-family="Times,serif" font-size="14.00" fill="#000000">input</text>
</g>
<!-- start&#45;&gt;input -->
<g id="edge1" class="edge">
<title>start&#45;&gt;input</title>
<path fill="none" stroke="#000000" d="M99,-255.9551C99,-247.8828 99,-238.1764 99,-229.1817"/>
<polygon fill="#000000" stroke="#000000" points="102.5001,-229.0903 99,-219.0904 95.5001,-229.0904 102.5001,-229.0903"/>
</g>
<!-- end -->
<g id="node3" class="node">
<title>end</title>
<path fill="none" stroke="#000000" d="M208,-59C208,-59 178,-59 178,-59 172,-59 166,-53 166,-47 166,-47 166,-35 166,-35 166,-29 172,-23 178,-23 178,-23 208,-23 208,-23 214,-23 220,-29 220,-35 220,-35 220,-47 220,-47 220,-53 214,-59 208,-59"/>
<text text-anchor="middle" x="193" y="-37.3" font-family="Times,serif" font-size="14.00" fill="#000000">end</text>
</g>
<!-- if_valid -->
<g id="node4" class="node">
<title>if_valid</title>
<polygon fill="none" stroke="#000000" points="171,-146 114.8627,-128 171,-110 227.1373,-128 171,-146"/>
<text text-anchor="middle" x="171" y="-124.3" font-family="Times,serif" font-size="14.00" fill="#000000">if_valid</text>
</g>
<!-- if_valid&#45;&gt;end -->
<g id="edge4" class="edge">
<title>if_valid&#45;&gt;end</title>
<path fill="none" stroke="#000000" d="M175.2418,-111.2255C178.2467,-99.3426 182.3501,-83.1154 185.8555,-69.2532"/>
<polygon fill="#000000" stroke="#000000" points="189.333,-69.7777 188.3914,-59.2248 182.5466,-68.0616 189.333,-69.7777"/>
<text text-anchor="middle" x="193.5" y="-80.8" font-family="Times,serif" font-size="14.00" fill="#000000">yes</text>
</g>
<!-- message -->
<g id="node5" class="node">
<title>message</title>
<polygon fill="none" stroke="#000000" points="147.9762,-59 50.9767,-59 26.0238,-23 123.0233,-23 147.9762,-59"/>
<text text-anchor="middle" x="87" y="-37.3" font-family="Times,serif" font-size="14.00" fill="#000000">message</text>
</g>
<!-- if_valid&#45;&gt;message -->
<g id="edge3" class="edge">
<title>if_valid&#45;&gt;message</title>
<path fill="none" stroke="#000000" d="M157.5039,-114.0219C145.1489,-101.2257 126.5631,-81.976 111.5755,-66.4531"/>
<polygon fill="#000000" stroke="#000000" points="114.0139,-63.9398 104.55,-59.1768 108.9781,-68.8019 114.0139,-63.9398"/>
<text text-anchor="middle" x="143" y="-80.8" font-family="Times,serif" font-size="14.00" fill="#000000">no</text>
</g>
<!-- message&#45;&gt;input -->
<g id="edge5" class="edge">
<title>message&#45;&gt;input</title>
<path fill="none" stroke="#000000" d="M88.3667,-59.2226C90.4455,-86.9404 94.4194,-139.9256 96.8766,-172.6875"/>
<polygon fill="#000000" stroke="#000000" points="93.4086,-173.2468 97.6468,-182.957 100.389,-172.7232 93.4086,-173.2468"/>
</g>
<!-- input&#45;&gt;if_valid -->
<g id="edge2" class="edge">
<title>input&#45;&gt;if_valid</title>
<path fill="none" stroke="#000000" d="M116.7978,-182.9551C126.8507,-172.7625 139.4734,-159.9645 150.0078,-149.2838"/>
<polygon fill="#000000" stroke="#000000" points="152.7125,-151.5258 157.2427,-141.9483 147.7287,-146.6103 152.7125,-151.5258"/>
</g>
</g>
</svg>
